<?xml version="1.0" encoding="UTF-8"?>
<svg version="1.1" xmlns="http://www.w3.org/2000/svg" width="512" height="512">
<path d="M0 0 C7.92570391 7.26620997 13.92734499 15.3684433 19.62890625 24.41015625 C20.84578125 24.26578125 22.06265625 24.12140625 23.31640625 23.97265625 C24.00089844 23.89144531 24.68539063 23.81023437 25.390625 23.7265625 C27.6457274 23.43739709 27.6457274 23.43739709 29.90429688 22.90527344 C52.53490589 18.79282943 75.32475357 23.53282183 94.31640625 36.203125 C96.50270817 37.86182975 98.56828771 39.59857933 100.62890625 41.41015625 C101.36238281 42.00183594 102.09585937 42.59351563 102.8515625 43.203125 C117.93935494 55.75471906 127.32156487 74.19285348 130.62890625 93.41015625 C130.84977462 97.82455407 130.81404294 102.24076263 130.81640625 106.66015625 C130.82865234 107.84996094 130.84089844 109.03976563 130.85351562 110.265625 C130.86353856 116.31279532 130.5023449 121.71226998 129.02001953 127.56982422 C128.46050927 130.20252606 128.55573518 131.93778745 129.62890625 134.41015625 C131.73204295 136.15152119 131.73204295 136.15152119 134.44140625 137.53515625 C153.06879671 148.72125454 165.43010165 166.51305114 171.00390625 187.34765625 C176.66794181 210.7299569 173.25317917 233.82724868 161.34765625 254.72265625 C152.9415624 267.86673026 141.65776025 277.19436687 128.62890625 285.41015625 C128.77328125 286.62703125 128.91765625 287.84390625 129.06640625 289.09765625 C129.14761719 289.78214844 129.22882813 290.46664063 129.3125 291.171875 C129.60154019 293.4266401 129.60154019 293.4266401 130.13378906 295.68334961 C132.74502372 310.06445409 131.80817427 326.75726612 126.62890625 340.41015625 C126.26667969 341.4465625 125.90445312 342.48296875 125.53125 343.55078125 C117.58567977 364.55940762 101.18079837 380.34357864 81.16796875 389.90625 C69.67620252 394.78961644 59.31395706 396.59074035 46.94140625 396.59765625 C45.80767578 396.60990234 44.67394531 396.62214844 43.50585938 396.63476562 C37.37423713 396.64536785 31.78215726 396.29348853 25.83666992 394.7434082 C23.16011959 394.33939502 21.21702986 394.64505004 18.62890625 395.41015625 C16.92214993 397.48048422 16.92214993 397.48048422 15.56640625 400.16015625 C4.39084669 418.74586005 -13.30121293 431.1037648 -34.18359375 436.72265625 C-57.59293132 442.47944233 -80.74969986 439.05635742 -101.68359375 427.12890625 C-114.82766776 418.7228124 -124.15530437 407.43901025 -132.37109375 394.41015625 C-133.56734375 394.55453125 -134.76359375 394.69890625 -135.99609375 394.84765625 C-136.66898438 394.92886719 -137.341875 395.01007813 -138.03515625 395.09375 C-139.74891303 395.32588093 -141.45625266 395.60674921 -143.15795898 395.91503906 C-157.68810345 398.15401277 -173.57796736 397.58469936 -187.37109375 392.41015625 C-188.40878906 392.04792969 -189.44648438 391.68570312 -190.515625 391.3125 C-211.52196578 383.3575956 -227.30300222 366.96521672 -236.8671875 346.94921875 C-241.84095967 335.24470554 -243.55185608 324.75960775 -243.55859375 312.16015625 C-243.57083984 310.97035156 -243.58308594 309.78054688 -243.59570312 308.5546875 C-243.60572586 302.50763653 -243.24507702 297.1080517 -241.76196289 291.25073242 C-241.2034947 288.62094373 -241.30146974 286.88026254 -242.37109375 284.41015625 C-244.44142172 282.70339993 -244.44142172 282.70339993 -247.12109375 281.34765625 C-265.70643513 270.17231462 -278.06541464 252.47997988 -283.68359375 231.59765625 C-286.15056887 221.55573678 -286.15056887 221.55573678 -286.37109375 216.41015625 C-286.42265625 215.33765625 -286.47421875 214.26515625 -286.52734375 213.16015625 C-287.11542288 189.63699118 -279.36280932 167.85330791 -263.37109375 150.41015625 C-256.70815868 143.65969494 -249.3570389 138.44596702 -241.37109375 133.41015625 C-241.51546875 132.19328125 -241.65984375 130.97640625 -241.80859375 129.72265625 C-241.88980469 129.03816406 -241.97101563 128.35367188 -242.0546875 127.6484375 C-242.34372769 125.3936724 -242.34372769 125.3936724 -242.87597656 123.13696289 C-245.48721122 108.75585841 -244.55036177 92.06304638 -239.37109375 78.41015625 C-239.00886719 77.37375 -238.64664063 76.33734375 -238.2734375 75.26953125 C-230.32786727 54.26090488 -213.92298587 38.47673386 -193.91015625 28.9140625 C-182.20564304 23.94029033 -171.72054525 22.22939392 -159.12109375 22.22265625 C-157.93128906 22.21041016 -156.74148437 22.19816406 -155.515625 22.18554688 C-149.46845468 22.17552394 -144.06898002 22.5367176 -138.21142578 24.01904297 C-135.57872394 24.57855323 -133.84346255 24.48332732 -131.37109375 23.41015625 C-129.62972881 21.30701955 -129.62972881 21.30701955 -128.24609375 18.59765625 C-117.05999546 -0.02973421 -99.26819886 -12.39103915 -78.43359375 -17.96484375 C-50.64370179 -24.69655671 -21.92626241 -18.68254792 0 0 Z M-1.87670898 158.57519531 C-2.6970311 159.39507935 -3.51735321 160.21496338 -4.36253357 161.05969238 C-7.05876145 163.75800195 -9.7442211 166.46676482 -12.4296875 169.17578125 C-14.30233107 171.05402295 -16.17555674 172.93166536 -18.04957581 174.80853271 C-22.46822442 179.23648018 -26.87917421 183.67201434 -31.28736502 188.1103704 C-36.30927712 193.16589397 -41.33977999 198.21283231 -46.37099922 203.2590909 C-56.71390467 213.6332964 -67.046057 224.01816697 -77.37109375 234.41015625 C-81.19415437 231.18484883 -84.95167967 227.96016744 -88.45117188 224.38012695 C-89.16881714 223.64949539 -89.8864624 222.91886383 -90.62585449 222.16609192 C-91.37709595 221.39714096 -92.1283374 220.62819 -92.90234375 219.8359375 C-94.53340665 218.18250112 -96.16493096 216.52951982 -97.796875 214.87695312 C-100.34247372 212.29420136 -102.88486211 209.70856736 -105.41943359 207.11499023 C-107.88376198 204.59611601 -110.36065733 202.09017779 -112.83984375 199.5859375 C-113.59108521 198.81091385 -114.34232666 198.0358902 -115.11633301 197.23738098 C-119.83050957 192.50001724 -123.90861247 188.93898926 -130.77734375 188.125 C-136.72877752 188.75789501 -140.48596552 190.81472757 -144.37109375 195.41015625 C-146.95335921 199.72262651 -147.14803412 203.50913431 -146.37109375 208.41015625 C-142.47187671 216.64128415 -135.24691181 222.97360327 -128.875 229.3046875 C-127.75647503 230.4252382 -126.63839531 231.5462335 -125.52073669 232.66764832 C-123.18980311 235.00297809 -120.85359893 237.33286372 -118.51342773 239.65893555 C-115.52648515 242.62874812 -112.55327028 245.61188391 -109.58386326 248.59921741 C-107.28235794 250.91159999 -104.97370983 253.21674494 -102.66288567 255.51981163 C-101.56395744 256.61675081 -100.46721947 257.71588909 -99.37280464 258.81733131 C-97.83977968 260.35804048 -96.29734925 261.88870162 -94.75219727 263.41723633 C-93.87982925 264.28721756 -93.00746124 265.15719879 -92.10865784 266.05354309 C-87.75451825 269.80177412 -83.25841131 272.98755225 -77.30859375 272.91015625 C-76.51324219 272.92046875 -75.71789062 272.93078125 -74.8984375 272.94140625 C-67.4352522 271.37263778 -61.97858498 264.30677894 -56.83325195 259.14697266 C-55.88198556 258.20005892 -54.93030388 257.25356222 -53.97824097 256.30744934 C-51.40552162 253.74806887 -48.83919079 251.18237375 -46.27440286 248.61504793 C-44.12902858 246.46860089 -41.98067829 244.32514462 -39.83237714 242.18162763 C-34.76374872 237.12407581 -29.70044425 232.06123715 -24.64038086 226.99511719 C-19.42650818 221.77519986 -14.2035142 216.56453851 -8.97598964 211.35829604 C-4.48041304 206.88034749 0.0093219 202.39660012 4.49446613 197.90820253 C7.17000616 195.23085209 9.84770827 192.55575993 12.53110313 189.88628006 C15.05360424 187.37637295 17.56871604 184.85928647 20.07840347 182.33656883 C21.43611809 180.97536955 22.80122021 179.62155131 24.16654968 178.26799011 C29.33144318 173.05846007 33.22780426 169.02007419 34.06640625 161.47265625 C33.80821377 155.60158385 31.21818133 151.88591168 27.00390625 147.97265625 C14.74348765 142.29653653 6.38841991 150.19281424 -1.87670898 158.57519531 Z " fill="#2A8BFF" transform="translate(312.37109375,46.58984375)"/>
</svg>
